<svg width="26" height="26" viewBox="0 0 26 26" fill="none" xmlns="http://www.w3.org/2000/svg">
<path d="M0 13C0 5.8203 5.8203 0 13 0C20.1797 0 26 5.8203 26 13C26 20.1797 20.1797 26 13 26C5.8203 26 0 20.1797 0 13Z" fill="#FFD700" fill-opacity="0.4"/>
<path d="M13 24C8.58333 24 5 20.4727 5 16.125C5 12.3844 10.425 5.3666 11.9417 3.47988C12.1917 3.17227 12.5625 3 12.9625 3H13.0375C13.4375 3 13.8083 3.17227 14.0583 3.47988C15.575 5.3666 21 12.3844 21 16.125C21 20.4727 17.4167 24 13 24ZM9 16.7812C9 16.4203 8.7 16.125 8.33333 16.125C7.96667 16.125 7.66667 16.4203 7.66667 16.7812C7.66667 19.3201 9.75417 21.375 12.3333 21.375C12.7 21.375 13 21.0797 13 20.7188C13 20.3578 12.7 20.0625 12.3333 20.0625C10.4917 20.0625 9 18.5941 9 16.7812Z" fill="url(#paint0_linear_275_407)"/>
<path d="M13 0.0996094C20.1245 0.0996094 25.9004 5.87553 25.9004 13C25.9004 20.1245 20.1245 25.9004 13 25.9004C5.87553 25.9004 0.0996094 20.1245 0.0996094 13C0.0996094 5.87553 5.87553 0.0996094 13 0.0996094ZM8.90039 16.7812C8.90039 18.6507 10.4378 20.1619 12.333 20.1621C12.6459 20.1621 12.9004 20.4145 12.9004 20.7188C12.9004 21.023 12.6459 21.2754 12.333 21.2754C9.80773 21.2752 7.7666 19.2633 7.7666 16.7812C7.7666 16.4771 8.02023 16.2248 8.33301 16.2246C8.64594 16.2246 8.90039 16.477 8.90039 16.7812ZM20.9004 16.125C20.9004 20.4159 17.3629 23.9004 13 23.9004C8.63707 23.9004 5.09961 20.4159 5.09961 16.125C5.09961 15.2108 5.43247 14.0862 5.96289 12.877C6.49247 11.6697 7.21486 10.3868 7.98633 9.16016C9.14353 7.32022 10.408 5.61022 11.2871 4.47266L12.0195 3.54297C12.25 3.25947 12.5922 3.09961 12.9629 3.09961H13.0371C13.3616 3.09961 13.6647 3.22181 13.8896 3.44238L13.9805 3.54297C14.7379 4.48523 16.471 6.70729 18.0137 9.16016C18.7851 10.3868 19.5075 11.6697 20.0371 12.877C20.5675 14.0862 20.9004 15.2108 20.9004 16.125ZM9.09961 16.7812C9.09961 16.3636 8.75341 16.0254 8.33301 16.0254C7.91275 16.0256 7.56641 16.3637 7.56641 16.7812C7.56641 19.3767 9.70025 21.4744 12.333 21.4746C12.7534 21.4746 13.0996 21.1364 13.0996 20.7188C13.0996 20.3011 12.7534 19.9629 12.333 19.9629C10.5452 19.9627 9.09961 18.5373 9.09961 16.7812ZM21.0996 16.125C21.0996 15.169 20.7548 14.0134 20.2207 12.7959C19.6857 11.5763 18.957 10.2849 18.1826 9.05371C16.6339 6.59126 14.8961 4.36164 14.1367 3.41699H14.1357C13.8662 3.08533 13.4663 2.90039 13.0371 2.90039H12.9629C12.5337 2.90039 12.1338 3.08533 11.8643 3.41699H11.8633C11.1039 4.36164 9.36612 6.59126 7.81738 9.05371C7.04305 10.2849 6.31429 11.5763 5.7793 12.7959C5.24521 14.0134 4.90039 15.169 4.90039 16.125C4.90039 20.5294 8.5296 24.0996 13 24.0996C17.4704 24.0996 21.0996 20.5294 21.0996 16.125Z" stroke="#AD9200" stroke-width="0.2"/>
<defs>
<linearGradient id="paint0_linear_275_407" x1="13" y1="3" x2="13" y2="24" gradientUnits="userSpaceOnUse">
<stop stop-color="#FFD700"/>
<stop offset="1" stop-color="#FFD700" stop-opacity="0.4"/>
</linearGradient>
</defs>
</svg>
