<?xml version="1.0" encoding="UTF-8" standalone="no"?>
<!DOCTYPE svg PUBLIC "-//W3C//DTD SVG 1.1//EN" "http://www.w3.org/Graphics/SVG/1.1/DTD/svg11.dtd">
<svg width="100%" height="100%" viewBox="0 0 295 143" version="1.1" xmlns="http://www.w3.org/2000/svg" xmlns:xlink="http://www.w3.org/1999/xlink" xml:space="preserve" xmlns:serif="http://www.serif.com/" style="fill-rule:evenodd;clip-rule:evenodd;stroke-linejoin:round;stroke-miterlimit:2;">
    <g transform="matrix(1,0,0,1,-713.916992,-374.582725)">
        <g>
            <path d="M878.573,414.542C878.573,414.542 885.323,412.897 901.718,402.821C918.114,392.744 922.896,391.378 951.417,383.351C979.938,375.324 987.623,373.275 989.331,375.324C991.039,377.374 1007.78,411.701 1008.12,445.004C1005.97,473.415 999.122,496.301 993.667,513.168C992.675,516.234 989.465,517.988 986.348,517.173C970.393,513.003 925.037,500.931 917.602,496.582C908.55,491.287 885.835,477.454 881.053,465.669C877.467,460.717 877.722,456.91 877.722,456.91L878.573,414.542Z" style="fill:rgb(26,26,26);fill-rule:nonzero;"/>
            <path d="M843.462,414.542C843.462,414.542 836.712,412.897 820.317,402.821C803.921,392.744 799.139,391.378 770.618,383.351C742.097,375.324 734.411,373.275 732.703,375.324C730.996,377.374 714.259,411.701 713.917,445.004C716.068,473.415 722.912,496.301 728.368,513.168C729.36,516.234 732.57,517.988 735.688,517.173C751.642,513.003 796.997,500.931 804.434,496.582C813.486,491.287 836.199,477.454 840.982,465.669C844.568,460.717 844.313,456.91 844.313,456.91L843.462,414.542Z" style="fill:rgb(26,26,26);fill-rule:nonzero;"/>
            <path d="M878.56,432.747C903.938,443.786 935.597,440.13 958.107,424.025C932.254,432.127 903.886,431.986 878.115,423.629L877.742,431.854C877.593,431.69 877.44,431.529 877.292,431.363L876.543,446.249C902.444,469.464 937.997,483.094 972.691,480.624C936.951,476.589 902.884,459.234 878.56,432.747Z" style="fill:rgb(40,40,40);fill-rule:nonzero;"/>
            <path d="M843.475,432.747C818.098,443.786 786.438,440.13 763.928,424.025C789.781,432.127 818.15,431.986 843.921,423.629L844.293,431.854C844.442,431.69 844.595,431.529 844.742,431.363L845.491,446.249C819.591,469.464 784.037,483.094 749.344,480.624C785.084,476.589 819.151,459.234 843.475,432.747Z" style="fill:rgb(40,40,40);fill-rule:nonzero;"/>
            <path d="M880.33,419.819C880.073,418.826 879.781,417.843 879.45,416.872C879.287,416.394 879.115,415.918 878.934,415.446C878.818,415.143 878.697,414.842 878.573,414.542C878.357,414.022 878.098,413.706 877.596,413.42C876.832,412.984 875.897,413.027 875.02,413.081C870.323,413.374 865.339,414.519 861.018,414.348C856.696,414.519 851.711,413.374 847.015,413.081C846.138,413.027 845.202,412.984 844.439,413.42C843.937,413.706 843.678,414.022 843.462,414.542C843.338,414.842 843.217,415.143 843.101,415.446C842.919,415.918 842.747,416.394 842.585,416.872C842.255,417.843 841.961,418.826 841.705,419.819C840.028,426.309 839.993,433.08 840.763,439.704C841.15,443.04 841.734,446.349 842.403,449.639C842.856,451.865 842.851,455.073 844.313,456.91C845.247,458.084 846.982,457.879 848.228,457.414C852.333,455.885 856.678,455.12 861.018,455.11C865.357,455.12 869.702,455.885 873.807,457.414C875.054,457.879 876.787,458.084 877.722,456.91C879.184,455.073 879.179,451.865 879.632,449.639C880.301,446.349 880.885,443.04 881.273,439.704C882.041,433.08 882.007,426.309 880.33,419.819Z" style="fill:rgb(47,49,61);fill-rule:nonzero;"/>
        </g>
    </g>
</svg>
