<?xml version="1.0" encoding="UTF-8" standalone="no"?>
<!DOCTYPE svg PUBLIC "-//W3C//DTD SVG 1.1//EN" "http://www.w3.org/Graphics/SVG/1.1/DTD/svg11.dtd">
<svg width="100%" height="100%" viewBox="0 0 193 250" version="1.1" xmlns="http://www.w3.org/2000/svg" xmlns:xlink="http://www.w3.org/1999/xlink" xml:space="preserve" xmlns:serif="http://www.serif.com/" style="fill-rule:evenodd;clip-rule:evenodd;stroke-linejoin:round;stroke-miterlimit:2;">
    <g transform="matrix(1,0,0,1,-817.696804,-28.890685)">
        <g transform="matrix(-0.956408,0.292034,0.292034,0.956408,1717.591561,-218.367654)">
            <path d="M873.706,56.849C855.235,72.797 812.796,73.358 809.393,41.337C808.965,37.304 810.1,27.649 811.74,23.91C812.729,21.657 821.475,14.618 821.135,16.101C822.706,9.246 826.744,10.621 830.997,7.666C834.756,5.054 838.214,2.863 842.878,1.16C842.893,1.155 856.324,-0.09 856.793,0.093C862.697,2.392 859.17,10.275 866.257,7.828C868.389,13.932 873.758,16.238 874.159,22.578C875.307,22.138 878.094,22.263 879.213,21.774C880.681,25.669 881.208,25.886 884.556,28.275C895.162,35.873 878.656,52.575 873.706,56.849Z" style="fill:rgb(174,31,37);fill-rule:nonzero;"/>
            <path d="M880.026,42.975C878.083,47.113 873.96,48.165 869.983,49.771C865.688,51.504 865.694,52.948 862.708,55.516C859.195,58.537 854.162,58.667 849.797,58.849C847.918,58.927 844.797,59.369 843.097,58.38C841.351,57.364 842.007,56.066 840.847,55.028C838.076,52.547 833.705,51.116 829.717,52.163C825.128,53.367 825.274,56.141 822.096,50.378C819.689,46.012 817.769,40.592 818.332,35.507C822.006,34.597 818.911,33.489 818.235,31.732C816.807,28.023 814.891,29.235 818.847,26.836C820.665,25.734 823.452,26.318 824.855,24.352C825.802,23.026 824.851,19.785 825.512,18.213C825.806,17.512 827.701,17.198 827.853,16.707C828.023,16.155 827.965,13.821 828.19,13.46C829.589,11.217 830.512,10.264 834.4,9.158C837.035,8.409 838.896,7.437 841.089,6.652C843.3,5.86 843.354,4.576 846.368,5.252C849.799,-0.9 861.575,11.042 863.638,13.95C866.162,17.505 866.417,20.746 871.765,22.509C879.985,25.217 883.707,35.139 880.026,42.975Z" style="fill:rgb(210,40,51);fill-rule:nonzero;"/>
            <path d="M960.945,186.003C941.996,195.636 919.32,193.199 898.994,197.127C877.221,201.334 849.449,206.494 827.461,201.219C817.435,198.811 813.715,192.081 811.622,182.886C807.91,166.595 815.536,148.65 813.794,131.291C812.11,114.42 811.508,93.665 818.94,78.558C827.167,61.83 844.992,53.653 862.171,50.664C872.9,48.801 883.077,47.819 891.784,50.349C898.779,52.384 904.835,56.691 909.465,64.639C919.248,81.41 929.045,96.461 942.555,110.858C947.686,116.32 950.223,122.139 953.362,128.002C954.48,130.087 955.677,132.173 957.089,134.258C969.452,152.491 989.82,171.326 960.945,186.003Z" style="fill:rgb(44,44,44);fill-rule:nonzero;"/>
            <path d="M989.319,213.696C988.387,214.485 987.377,215.244 986.266,215.983C983.686,217.681 980.611,219.222 976.985,220.641C975.938,221.057 974.842,221.458 973.695,221.852C973.666,221.86 973.63,221.874 973.602,221.888C970.162,223.064 966.671,224.146 963.152,225.135C961.999,225.472 960.845,225.787 959.691,226.095C956.874,226.855 954.036,227.564 951.184,228.245C950.03,228.518 948.869,228.79 947.715,229.055C944.913,229.693 942.096,230.302 939.279,230.897C938.104,231.148 936.929,231.392 935.753,231.635C932.65,232.28 929.547,232.904 926.444,233.527C925.268,233.771 924.1,234.007 922.925,234.244C920.495,234.738 918.065,235.233 915.643,235.735C914.475,235.985 913.307,236.229 912.138,236.473C908.784,237.197 905.444,237.942 902.126,238.73C900.965,239.01 899.804,239.289 898.65,239.576C898.593,239.59 898.543,239.605 898.485,239.619C895.64,240.329 892.788,241.139 889.914,241.984C888.767,242.321 887.62,242.672 886.466,243.016C882.088,244.335 877.68,245.697 873.251,246.901C872.097,247.209 870.936,247.51 869.782,247.804C867.058,248.477 864.328,249.065 861.597,249.531L861.59,249.531C860.415,249.732 859.247,249.911 858.071,250.061C855.183,250.427 852.287,250.635 849.399,250.613L849.328,250.613C848.152,250.606 846.927,250.585 845.665,250.549C842.999,250.47 840.175,250.319 837.344,249.997C835.976,249.846 834.6,249.653 833.238,249.409C830.049,248.85 826.931,248.026 824.086,246.822C822.502,246.148 820.997,245.36 819.621,244.421C817.413,242.93 815.514,241.081 814.066,238.781C806.168,226.196 802.599,203.763 810.841,189.988C810.841,189.981 810.848,189.981 810.848,189.981C811.171,189.422 811.529,188.877 811.902,188.347C812.819,187.05 813.887,185.853 815.084,184.749C815.084,184.742 815.091,184.742 815.091,184.742C816.302,183.61 817.643,182.571 819.09,181.603C820.194,180.872 821.362,180.177 822.581,179.532C824.896,178.292 827.39,177.203 829.977,176.235C831.088,175.819 832.22,175.418 833.367,175.038C837.072,173.813 840.892,172.788 844.605,171.87C845.773,171.584 846.934,171.304 848.081,171.039C850.811,170.387 853.441,169.792 855.871,169.204C856.838,168.961 857.777,168.731 858.68,168.495C858.91,168.437 859.132,168.38 859.361,168.323C862.837,167.413 866.32,166.531 869.811,165.671C870.972,165.377 872.133,165.09 873.286,164.811C877.056,163.879 880.826,162.962 884.589,162.045C885.75,161.758 886.911,161.471 888.065,161.192C890.208,160.668 892.343,160.138 894.479,159.608C895.54,159.343 896.608,159.113 897.668,158.913C898.844,158.683 900.012,158.49 901.187,158.332C904.369,157.888 907.566,157.651 910.769,157.515C911.938,157.458 913.106,157.422 914.281,157.386C916.94,157.314 919.599,157.286 922.265,157.228C923.455,157.207 924.645,157.171 925.834,157.135C928.472,157.042 931.109,156.906 933.739,156.655C933.847,156.648 933.954,156.633 934.055,156.619C935.316,156.497 936.542,156.318 937.739,156.103C941.422,155.437 944.855,154.397 948.245,153.265C949.406,152.878 950.567,152.477 951.728,152.075C954.007,151.287 956.315,150.491 958.709,149.782C959.526,149.538 960.35,149.302 961.189,149.08C961.497,148.994 961.805,148.922 962.113,148.85C966.141,147.926 969.818,148.04 973.143,148.965C974.548,149.359 975.888,149.889 977.164,150.556C986.932,155.601 993.038,168.043 995.633,179.998C999.044,195.722 998.17,206.142 989.319,213.696Z" style="fill:rgb(210,40,51);fill-rule:nonzero;"/>
            <path d="M824.086,246.822C822.502,246.148 820.997,245.36 819.621,244.421C814.274,226.812 809.308,208.199 810.841,189.988C810.841,189.981 810.848,189.981 810.848,189.981C811.171,189.422 811.529,188.877 811.902,188.347C812.819,187.05 813.887,185.853 815.084,184.749C811.615,205.361 817.922,226.884 824.086,246.822Z" style="fill:rgb(174,31,37);fill-rule:nonzero;"/>
            <path d="M837.344,249.997C835.976,249.846 834.6,249.653 833.238,249.409C824.58,228.045 820.18,204.48 819.09,181.603C820.194,180.872 821.362,180.177 822.581,179.532C823.512,203.269 828.049,227.93 837.344,249.997Z" style="fill:rgb(174,31,37);fill-rule:nonzero;"/>
            <path d="M849.399,250.613L849.328,250.613C848.152,250.606 846.927,250.585 845.665,250.549C838.921,226.124 836.449,200.717 829.977,176.235C831.088,175.819 832.22,175.418 833.367,175.038C839.982,199.936 842.419,225.794 849.399,250.613Z" style="fill:rgb(174,31,37);fill-rule:nonzero;"/>
            <path d="M861.59,249.531C860.415,249.732 859.247,249.911 858.071,250.061C853.843,223.952 849.75,197.815 844.605,171.87C845.773,171.584 846.934,171.304 848.081,171.039C853.241,197.091 857.347,223.322 861.59,249.531Z" style="fill:rgb(174,31,37);fill-rule:nonzero;"/>
            <path d="M873.251,246.901C872.097,247.209 870.936,247.51 869.782,247.804C866.972,235.62 865.776,223.099 864.256,210.686C862.529,196.582 858.917,182.993 855.871,169.204C856.838,168.961 857.777,168.731 858.68,168.495C858.91,168.437 859.132,168.38 859.361,168.323C862.321,181.56 865.847,194.625 867.531,208.156C869.144,221.107 870.319,234.187 873.251,246.901Z" style="fill:rgb(174,31,37);fill-rule:nonzero;"/>
            <path d="M889.914,241.984C888.767,242.321 887.62,242.672 886.466,243.016C880.704,229.808 879.12,215.108 876.798,201.011C874.856,189.236 871.595,177.525 869.811,165.671C870.972,165.377 872.133,165.09 873.286,164.811C875.064,177.002 878.49,189.042 880.425,201.147C882.618,214.814 884.202,229.227 889.914,241.984Z" style="fill:rgb(174,31,37);fill-rule:nonzero;"/>
            <path d="M902.126,238.73C900.965,239.01 899.804,239.289 898.65,239.576C893.34,213.847 891.039,187.509 884.589,162.045C885.75,161.758 886.911,161.471 888.065,161.192C894.508,186.663 896.808,213.008 902.126,238.73Z" style="fill:rgb(174,31,37);fill-rule:nonzero;"/>
            <path d="M915.643,235.735C914.475,235.985 913.307,236.229 912.138,236.473C905.659,210.966 900.922,185.029 897.668,158.913C898.844,158.683 900.012,158.49 901.187,158.332C904.42,184.398 909.164,210.278 915.643,235.735Z" style="fill:rgb(174,31,37);fill-rule:nonzero;"/>
            <path d="M926.444,233.527C925.268,233.771 924.1,234.007 922.925,234.244C918.567,218.763 916.696,202.717 915.077,186.756C914.303,179.13 912.991,171.72 911.737,164.173C911.371,161.973 911.02,159.751 910.769,157.515C911.938,157.458 913.106,157.422 914.281,157.386C914.64,160.482 915.234,163.564 915.779,166.531C917.019,173.275 917.965,179.933 918.66,186.756C920.266,202.495 922.129,218.276 926.444,233.527Z" style="fill:rgb(174,31,37);fill-rule:nonzero;"/>
            <path d="M939.279,230.897C938.104,231.148 936.929,231.392 935.753,231.635C931.002,218.298 928.844,204.215 926.902,190.239C925.39,179.324 923.319,168.287 922.265,157.228C923.455,157.207 924.645,157.171 925.834,157.135C926.888,168.308 928.981,179.482 930.529,190.511C932.442,204.157 934.614,217.882 939.279,230.897Z" style="fill:rgb(174,31,37);fill-rule:nonzero;"/>
            <path d="M951.184,228.245C950.03,228.518 948.869,228.79 947.715,229.055C945.242,214.872 941.702,200.882 939.595,186.627C938.126,176.651 935.646,166.667 934.055,156.619C935.316,156.497 936.542,156.318 937.739,156.103C938.269,159.156 938.885,162.202 939.502,165.241C941.164,173.397 942.304,181.582 943.709,189.773C945.909,202.652 948.948,215.381 951.184,228.245Z" style="fill:rgb(174,31,37);fill-rule:nonzero;"/>
            <path d="M963.152,225.135C961.999,225.472 960.845,225.787 959.691,226.095C957.233,214.392 954.667,202.695 953.305,190.805C952.323,182.241 951.141,173.777 949.8,165.262C949.177,161.27 948.604,157.278 948.245,153.265C949.406,152.878 950.567,152.477 951.728,152.075C952.13,157.042 952.868,161.98 953.678,166.904C954.918,174.422 955.871,181.897 956.738,189.458C958.114,201.484 960.68,213.302 963.152,225.135Z" style="fill:rgb(174,31,37);fill-rule:nonzero;"/>
            <path d="M976.985,220.641C975.938,221.057 974.842,221.458 973.695,221.852C973.666,221.86 973.63,221.874 973.602,221.888C971.258,208.371 969.918,194.654 966.413,181.359C963.733,171.175 959.784,160.504 958.709,149.782C959.526,149.538 960.35,149.302 961.189,149.08C961.497,148.994 961.805,148.922 962.113,148.85C963.095,160.188 967.754,171.541 970.348,182.291C973.394,194.919 974.756,207.863 976.985,220.641Z" style="fill:rgb(174,31,37);fill-rule:nonzero;"/>
            <path d="M989.319,213.696C988.387,214.485 987.377,215.244 986.266,215.983C984.875,205.963 983.936,195.88 981.851,185.939C979.256,173.555 975.53,161.385 973.143,148.965C974.548,149.359 975.888,149.889 977.164,150.556C979.823,162.912 983.757,174.988 985.721,187.509C987.09,196.202 988.029,204.981 989.319,213.696Z" style="fill:rgb(174,31,37);fill-rule:nonzero;"/>
            <path d="M953.362,128.002C942.046,147.166 912.189,156.182 891.792,158.16C871.523,160.124 849.292,151.423 835.775,136.186C829.661,129.292 822.846,118.312 824.967,108.701C827.253,98.345 830.364,85.588 835.811,76.422C842.476,65.184 854.051,56.605 866.628,53.115C874.168,51.022 883.069,50.284 891.784,50.349C898.779,52.384 904.835,56.691 909.465,64.639C919.248,81.41 929.045,96.461 942.555,110.858C947.686,116.32 950.223,122.139 953.362,128.002Z" style="fill:rgb(51,51,51);fill-rule:nonzero;"/>
        </g>
    </g>
</svg>
