<?xml version="1.0" encoding="UTF-8" standalone="no"?>
<!DOCTYPE svg PUBLIC "-//W3C//DTD SVG 1.1//EN" "http://www.w3.org/Graphics/SVG/1.1/DTD/svg11.dtd">
<svg width="100%" height="100%" viewBox="0 0 256 190" version="1.1" xmlns="http://www.w3.org/2000/svg" xmlns:xlink="http://www.w3.org/1999/xlink" xml:space="preserve" xmlns:serif="http://www.serif.com/" style="fill-rule:evenodd;clip-rule:evenodd;stroke-linejoin:round;stroke-miterlimit:2;">
    <g transform="matrix(1,0,0,1,-774.238332,-441.897822)">
        <g>
            <path d="M1008.98,506.297C1013.77,505.812 1027.189,502.225 1029.24,509.169C1030.92,514.863 1017.27,524.129 1013.24,527.173C1002.42,535.352 991.066,542.752 981.204,551.932C970.943,561.484 959.779,570.015 949.082,579.114C938.626,588.007 929.246,598.117 918.019,606.111C905.495,615.03 891.892,622.799 877.285,627.69C853.871,635.531 827.422,629.352 807.624,615.075C792.763,604.358 779.76,591.603 776.754,572.606C775.159,562.527 772.706,549.049 775.532,539.007C778.853,527.209 783.287,513.51 792.462,505.063C802.357,495.953 817.257,488.946 830.536,487.659C846.79,486.085 863.876,489.714 880.114,491.234C893.741,492.509 907.19,494.346 920.781,496.213C927.787,497.175 934.7,497.523 941.178,500.32C946.967,502.819 953.429,502.408 959.229,504.56C964.198,506.404 967.854,508.428 973.449,508.907C985.355,509.926 997.181,507.489 1008.98,506.297Z" style="fill:rgb(79,62,51);fill-rule:nonzero;"/>
            <path d="M990.365,512.212C995.645,511.653 1000.85,510.879 1006.44,510.79C1010,510.733 1017.58,509.602 1017.87,514.535C1018.24,520.855 1003.95,525.563 999.219,527.684C985.157,533.99 970.927,540.13 959.029,550.098C935.81,569.55 915.375,592.048 890.713,609.846C871.471,623.732 849.775,622.448 828.399,615.97C808.276,609.872 794.258,595.087 786.697,575.903C778.924,556.18 782.687,538.44 792.044,520.423C801.222,502.749 819.313,498.041 837.839,493.867C858.951,489.111 878.191,495.574 898.062,501.218C908.771,504.261 920.96,504.466 931.984,506.341C947.038,508.9 962.106,511.709 977.369,512.674C981.904,512.962 986.159,512.655 990.365,512.212Z" style="fill:rgb(90,70,57);fill-rule:nonzero;"/>
            <path d="M962.444,493.292C963.103,499.829 963.215,505.717 965.164,511.97C966.55,516.421 967.783,523.274 965.4,527.688C963.473,531.256 956.133,534.36 952.732,536.401C943.031,542.22 932.739,547.167 921.992,550.732C906.86,555.752 891.497,558.115 875.653,558.836C866.582,559.249 856.928,560.203 848.36,557.148C831.024,550.966 833.059,531.53 832.382,516.592C831.943,506.877 831.381,496.94 830.436,487.262C829.762,480.352 829.648,469.571 832.77,463.444C837.775,453.622 854.229,449.275 863.953,446.942C882.802,442.42 901.639,440.781 920.87,442.668C930.787,443.641 946.94,444.935 955.11,451.63C959.599,455.308 958.973,464.005 960.07,469.236C961.715,477.084 961.63,485.203 962.444,493.292Z" style="fill:rgb(111,84,71);fill-rule:nonzero;"/>
            <path d="M832.609,524.828C837.319,553.273 870.67,555.14 893.155,551.949C915.464,548.783 933.306,540.116 951.832,527.897C954.62,526.058 962.216,516.873 965.164,511.97C966.746,516.949 969.823,525.673 965.753,531.714C955.166,547.431 927.413,556.314 910.323,561.408C890.231,567.398 866.737,570.24 847.377,560.319C835.871,554.424 830.048,548.673 832.609,524.828Z" style="fill:rgb(42,41,41);fill-rule:nonzero;"/>
            <path d="M922.516,444.369C928.758,444.993 961.943,448.221 950.103,460.213C945.74,464.633 938.26,466.78 932.539,468.62C921.323,472.228 909.217,475.012 897.448,476.025C887.018,476.923 877.233,477.193 866.896,476.161C858.809,475.354 845.668,472.652 839.995,465.773C829.819,453.434 875.212,446.31 882.921,445.591C896.082,444.364 909.209,443.038 922.516,444.369Z" style="fill:rgb(90,70,57);fill-rule:nonzero;"/>
            <path d="M892.34,445.744C902.068,444.452 912.335,446.358 921.385,448.084C928.506,449.442 940.734,450.833 945.6,456.148C936.247,467.244 909.001,470.047 894.891,471.273C887.641,471.901 879.985,471.259 872.75,470.811C866.802,470.443 851.133,471.022 846.681,466.556C837.72,457.565 884.767,446.75 892.34,445.744Z" style="fill:rgb(111,84,71);fill-rule:nonzero;"/>
        </g>
    </g>
</svg>
