<?xml version="1.0" encoding="UTF-8" standalone="no"?>
<!DOCTYPE svg PUBLIC "-//W3C//DTD SVG 1.1//EN" "http://www.w3.org/Graphics/SVG/1.1/DTD/svg11.dtd">
<svg width="100%" height="100%" viewBox="0 0 4000 4000" version="1.1" xmlns="http://www.w3.org/2000/svg" xmlns:xlink="http://www.w3.org/1999/xlink" xml:space="preserve" xmlns:serif="http://www.serif.com/" style="fill-rule:evenodd;clip-rule:evenodd;stroke-linejoin:round;stroke-miterlimit:2;">
    <g transform="matrix(1.457293,0,0,1.457293,-914.586939,-584.621751)">
        <g>
            <g>
                <path d="M1770.306,842.722C1807.252,813.165 1854.05,877.205 1858.976,936.318C1863.902,995.432 1812.178,1128.437 1666.857,1162.92C1521.536,1197.403 1504.295,1288.536 1509.221,1342.723C1514.147,1396.911 1489.517,1456.024 1437.792,1443.709C1386.068,1431.394 1381.142,1350.113 1427.94,1273.758C1474.738,1197.403 1592.965,1128.437 1612.67,1086.565C1632.374,1044.693 1617.596,995.432 1657.005,978.19C1696.414,960.949 1748.138,1005.284 1743.212,1047.156C1743.212,1047.156 1782.621,1007.747 1777.695,948.634C1774.461,909.823 1751.733,857.58 1770.306,842.722Z" style="fill:rgb(120,217,255);fill-rule:nonzero;"/>
            </g>
            <g>
                <path d="M2725.975,1202.329C2739.648,1162.829 2836.813,1185.088 2858.98,1239.275C2881.147,1293.462 2873.758,1335.334 2895.926,1372.28C2918.094,1409.226 2856.517,1470.802 2810.95,1463.413C2765.383,1456.024 2782.625,1372.28 2782.625,1335.334C2782.625,1298.388 2703.807,1266.368 2725.975,1202.329Z" style="fill:rgb(120,217,255);fill-rule:nonzero;"/>
            </g>
            <g>
                <path d="M2418.092,737.23C2451.808,707.102 2524.004,758.977 2543.708,800.849C2563.412,842.721 2546.171,953.559 2485.826,951.096C2425.481,948.633 2449.48,861.979 2427.944,843.93C2389.767,811.933 2390.998,761.44 2418.092,737.23Z" style="fill:rgb(120,217,255);fill-rule:nonzero;"/>
            </g>
            <g>
                <path d="M2002.283,480.651C2026.194,518.227 2008.403,569.321 1947.647,580.816C1886.892,592.31 1875.397,541.407 1842.556,552.901C1809.715,564.395 1773.59,572.605 1758.812,546.333C1744.034,520.06 1760.454,480.651 1826.136,480.651C1891.818,480.651 1958.396,411.686 2002.283,480.651Z" style="fill:rgb(120,217,255);fill-rule:nonzero;"/>
            </g>
            <g>
                <ellipse cx="1620.06" cy="783.969" rx="51.724" ry="55.723" style="fill:rgb(120,217,255);"/>
            </g>
            <g>
                <path d="M1395.713,1024.167C1377.338,1014.914 1317.103,1111.195 1358.154,1122.689C1399.205,1134.183 1425.063,1038.946 1395.713,1024.167Z" style="fill:rgb(120,217,255);fill-rule:nonzero;"/>
            </g>
            <g>
                <path d="M1235.001,1309.882C1235.001,1309.882 1315.461,1354.223 1285.904,1445.353C1256.347,1536.483 1192.308,1524.989 1172.603,1497.074C1152.899,1469.159 1152.899,1431.392 1185.739,1405.12C1218.58,1378.848 1235.001,1309.882 1235.001,1309.882Z" style="fill:rgb(120,217,255);fill-rule:nonzero;"/>
            </g>
            <g>
                <path d="M2942.724,1800.853C2942.724,1800.853 2967.354,1837.799 2955.039,1904.302C2942.724,1970.805 2923.019,2101.347 2991.985,2138.293C3060.951,2175.239 3088.045,2044.697 3060.951,2005.288C3033.857,1965.878 3075.729,1830.41 2942.724,1800.853Z" style="fill:rgb(120,217,255);fill-rule:nonzero;"/>
            </g>
            <g>
                <ellipse cx="3030.163" cy="2330.411" rx="52.956" ry="64.04" style="fill:rgb(120,217,255);"/>
            </g>
            <g>
                <path d="M952.57,2419.082C998.227,2395.408 1036.314,2433.86 1041.24,2505.289C1046.166,2576.718 1112.669,2638.294 1078.186,2675.24C1043.703,2712.186 1003.613,2559.476 972.274,2545.308C924.191,2523.569 886.067,2453.564 952.57,2419.082Z" style="fill:rgb(120,217,255);fill-rule:nonzero;"/>
            </g>
        </g>
        <g>
            <path d="M2892.101,2490.5C2849.116,2534.856 2906.33,2580.759 2804.82,2697.391C2762.548,2745.914 2836.017,2891.184 2632.401,2889.517C2632.401,2889.517 2514.16,2997.875 2395.92,3012.699C2277.68,3027.466 2228.442,3007.759 2115.144,3071.82C2001.845,3135.822 1750.599,3027.465 1647.124,2980.669C1543.708,2933.874 1504.295,2928.932 1415.644,2928.932C1326.935,2928.932 1361.466,2790.985 1297.404,2731.864C1233.342,2672.804 1159.457,2648.155 1154.515,2593.977C1149.633,2539.798 1100.337,2515.15 1105.279,2431.381C1110.219,2347.673 1026.451,2323.024 1016.628,2219.55C1006.745,2116.133 1060.924,2096.426 1041.218,2037.307C1021.511,1978.187 1016.628,1928.95 1046.158,1869.829C1050.208,1861.733 1054.256,1855.006 1058.363,1849.289C1083.666,1813.211 1107.958,1816.007 1124.985,1756.532C1144.691,1687.528 1090.513,1657.998 1149.633,1628.466C1208.753,1598.878 1228.46,1687.528 1193.928,1776.237C1159.456,1864.888 1115.101,1948.657 1174.221,1963.422C1233.341,1978.187 1218.576,1795.944 1297.403,1712.175C1376.23,1628.466 1341.758,1608.76 1445.173,1524.991C1548.649,1441.224 1558.472,1475.754 1592.944,1387.044C1627.476,1298.393 1724.759,1204.801 1823.888,1160.446C1923.016,1116.151 1967.372,1096.444 1952.547,1022.499C1937.781,948.613 2020.419,948.613 2023.456,869.786C2026.492,791.019 1957.489,736.781 1898.369,756.487C1839.248,776.194 1780.128,776.194 1799.835,712.192C1819.542,648.13 1943.617,653.072 2002.261,682.602C2060.964,712.192 2110.201,638.307 2189.028,712.192C2267.855,786.078 2371.27,810.726 2356.506,983.145C2341.741,1155.504 2326.976,1214.625 2390.978,1224.508C2455.04,1234.332 2400.861,1145.681 2400.861,1076.737C2400.861,1007.735 2514.16,1012.675 2543.69,1066.854C2573.28,1121.032 2533.867,1214.625 2563.397,1249.155C2592.987,1283.627 2647.166,1278.685 2661.931,1327.922C2676.696,1377.22 2652.107,1579.169 2721.051,1623.524C2789.995,1667.819 2775.23,1515.167 2834.35,1561.962C2893.47,1608.759 2908.235,1692.467 2873.764,1776.235C2850.723,1832.201 2848.401,1971.993 2861.737,2092.317C2868.226,2151.854 2878.586,2206.687 2892.101,2244.196C2932.885,2357.496 2935.027,2446.146 2892.101,2490.5Z" style="fill:rgb(120,217,255);fill-rule:nonzero;"/>
        </g>
        <g>
            <path d="M2075.493,1234.926C2204.838,1194.08 2313.403,1420.08 2268.393,1517.188C2223.383,1614.295 2204.135,1913.853 2371.294,1876.599C2538.452,1839.345 2416.283,1551.26 2506.303,1557.058C2596.323,1562.855 2557.743,1826.485 2615.613,1910.075C2673.483,1993.665 2873.142,2565.934 2551.478,2765.264C2229.814,2964.593 1774.647,2958.164 1600.356,2810.274C1530.233,2750.773 1479.487,2688.527 1442.094,2628.182C1424.327,2599.509 1413.647,2576.778 1406.361,2556.854C1390.692,2514.009 1393.436,2498.908 1377.632,2455.925C1374.457,2447.291 1361.64,2413.39 1337.925,2376.93C1303.174,2323.503 1287.415,2329.758 1254.92,2283.24C1244.072,2267.712 1209.634,2215.202 1206.452,2144.568C1205.618,2126.06 1203.288,2074.349 1225.301,2065.135C1250.204,2054.71 1282.43,2108.652 1315.505,2097.447C1332.84,2091.574 1340.385,2071.202 1345.124,2058.404C1359.114,2020.626 1345.086,1997.264 1338.392,1941.273C1333.216,1897.973 1326.992,1845.913 1352.37,1801.983C1356.53,1794.781 1368.524,1771.261 1408.304,1749.325C1548.235,1672.165 1673.889,1742.895 1765.382,1601.435C1856.875,1459.975 1858.645,1450.684 1944.565,1413.535C2030.483,1376.386 1953.323,1273.506 2075.493,1234.926Z" style="fill:rgb(120,174,255);fill-rule:nonzero;"/>
        </g>
        <g>
            <path d="M2024.124,3112.783C1932.815,3112.783 1805.259,3075.332 1638.46,2999.878C1536.812,2953.897 1500.748,2950.029 1415.626,2950.029C1348.302,2950.029 1333.946,2888.623 1322.411,2839.282C1314.262,2804.424 1305.834,2768.384 1283.092,2747.387C1261.905,2727.832 1239.755,2712.353 1218.336,2697.387C1175.035,2667.133 1137.638,2641.001 1133.536,2595.869C1131.91,2577.983 1123.768,2563.208 1114.344,2546.103C1099.471,2519.121 1080.965,2485.537 1084.222,2430.156C1086.246,2395.771 1069.959,2373.437 1049.342,2345.161C1026.72,2314.136 1001.078,2278.974 995.611,2221.577C990.01,2162.754 1003.404,2128.559 1014.166,2101.089C1022.96,2078.638 1028.27,2065.088 1021.231,2043.975C1003.421,1990.55 991.829,1931.329 1027.298,1860.386C1042.239,1830.508 1057.996,1816.487 1070.655,1805.222C1085.04,1792.422 1095.43,1783.174 1104.703,1750.722C1111.546,1726.772 1107.677,1709.035 1103.932,1691.884C1098.305,1666.1 1091.303,1634.013 1140.182,1609.572C1164.75,1597.284 1188.793,1599.308 1206.139,1615.114C1237.411,1643.613 1240.553,1714.584 1213.61,1783.866C1208.883,1796.022 1203.974,1808.082 1199.167,1819.891C1180.464,1865.838 1159.262,1917.918 1168.481,1936.085C1169.204,1937.506 1170.891,1940.834 1179.365,1942.953C1180.466,1943.224 1180.928,1943.17 1180.928,1943.161C1190.442,1939.811 1201.934,1893.806 1208.799,1866.318C1222.549,1811.267 1239.661,1742.756 1282.041,1697.727C1314.211,1663.545 1326.208,1640.979 1337.808,1619.158C1354.309,1588.118 1369.895,1558.802 1431.912,1508.596C1471.402,1476.628 1497.688,1461.338 1516.883,1450.171C1546.329,1433.045 1554.244,1428.44 1573.311,1379.412C1609.341,1286.763 1708.843,1188.807 1815.281,1141.202L1815.742,1140.997C1918.977,1094.823 1942.925,1081.825 1931.892,1026.661C1921.992,977.159 1947.908,951.463 1968.733,930.819C1986.182,913.519 2001.25,898.578 2002.38,869.01C2003.615,836.681 1989.983,806.6 1965.918,788.546C1946.965,774.332 1924.783,769.952 1905.056,776.525C1867.2,789.154 1816.472,798.725 1789.797,772.658C1779.06,762.17 1768.596,742.087 1779.707,705.978C1786.836,682.809 1804.404,664.682 1830.515,653.556C1884.372,630.602 1966.538,640.997 2011.775,663.785C2028.003,671.961 2043.34,669.085 2067.026,663.712C2103.313,655.482 2148.466,645.245 2203.454,696.793C2220.148,712.445 2238.579,726.2 2256.403,739.503C2322.094,788.529 2390.021,839.222 2377.531,984.918C2375.683,1006.483 2373.835,1026.283 2372.14,1044.437C2359.406,1180.821 2361.881,1198.678 2394.208,1203.651C2397.528,1204.161 2399.74,1204.198 2401.093,1204.13C2402.47,1195.238 2396.596,1171.379 2392.604,1155.172C2386.583,1130.724 2379.76,1103.016 2379.76,1076.713C2379.76,1042.511 2400.734,1016.745 2435.868,1007.785C2477.943,997.05 2538.209,1012.734 2562.225,1056.762C2580.125,1089.579 2577.147,1131.242 2574.52,1168.002C2572.611,1194.684 2570.45,1224.928 2579.427,1235.402C2588.604,1246.108 2602.325,1252.409 2616.851,1259.076C2640.848,1270.094 2670.713,1283.807 2682.137,1321.884C2687.496,1339.743 2688.311,1369.555 2689.346,1407.297C2691.241,1476.516 2694.107,1581.12 2732.454,1605.774C2739.471,1610.286 2743.465,1610.867 2744.727,1610.498C2750.369,1608.848 2758.382,1591.382 2763.169,1580.945C2772.354,1560.921 2782.766,1538.225 2805.042,1532.879C2818.56,1529.637 2832.84,1533.843 2847.442,1545.401C2913.492,1597.689 2931.478,1691.446 2893.262,1784.256C2861.59,1861.175 2872.576,2127.781 2911.924,2237.064C2957.136,2362.635 2955.51,2455.355 2907.227,2505.189C2896.04,2516.737 2894.825,2527.161 2893.143,2549.647C2890.438,2585.843 2886.729,2635.409 2820.702,2711.258C2812.448,2720.74 2810.477,2741.141 2808.39,2762.743C2802.745,2821.131 2794.254,2908.856 2640.385,2910.609C2613.683,2933.705 2507.638,3019.974 2398.542,3033.612C2364.997,3037.807 2336.699,3039.296 2311.733,3040.609C2248.65,3043.924 2203.071,3046.322 2125.515,3090.16C2098.853,3105.225 2065.147,3112.783 2024.124,3112.783ZM1171.053,1643.76C1168.253,1643.76 1164.393,1644.632 1159.049,1647.302C1139.513,1657.07 1140.045,1659.514 1145.148,1682.888C1149.315,1701.99 1155.026,1728.149 1145.265,1762.312C1132.628,1806.543 1115.38,1821.892 1098.7,1836.736C1087.203,1846.968 1076.342,1856.631 1065.031,1879.253C1037.931,1933.455 1043.493,1977.361 1061.252,2030.635C1073.122,2066.25 1063.12,2091.782 1053.447,2116.475C1043.845,2140.987 1032.961,2168.77 1037.61,2217.574C1041.978,2263.462 1063.052,2292.364 1083.43,2320.308C1105.954,2351.202 1129.248,2383.145 1126.338,2432.637C1123.794,2475.85 1137.151,2500.088 1151.289,2525.742C1162.024,2545.22 1173.122,2565.361 1175.549,2592.051C1177.876,2617.657 1206.394,2637.583 1242.5,2662.808C1264.021,2677.847 1288.416,2694.893 1311.707,2716.392C1343.965,2746.167 1354.336,2790.538 1363.489,2829.678C1376.475,2885.22 1384.827,2907.842 1415.628,2907.842C1503.98,2907.842 1547.579,2912.466 1655.85,2961.441C1936.653,3088.467 2054.956,3081.587 2104.759,3053.429C2190.95,3004.713 2243.275,3001.964 2309.517,2998.478C2333.775,2997.204 2361.267,2995.758 2393.311,2991.754C2503.584,2977.965 2616.995,2875.016 2618.128,2873.981C2622.02,2870.412 2627.105,2868.434 2632.381,2868.434L2632.552,2868.434C2755.677,2869.435 2760.657,2818.107 2766.402,2758.683C2769.158,2730.167 2771.761,2703.234 2788.887,2683.561C2845.711,2618.283 2848.687,2578.483 2851.077,2546.5C2852.83,2523.067 2854.641,2498.839 2876.931,2475.831C2912.204,2439.425 2910.491,2357.608 2872.234,2251.349C2828.731,2130.519 2818.482,1855.077 2854.255,1768.192C2885.117,1693.243 2872.165,1618.773 2821.257,1578.475C2818.054,1575.938 2815.93,1574.825 2814.778,1574.344C2810.869,1578.138 2805.083,1590.753 2801.514,1598.531C2791.753,1619.81 2780.691,1643.927 2756.58,1650.985C2742.078,1655.223 2726.287,1651.954 2709.644,1641.256C2652.552,1604.552 2649.571,1495.819 2647.178,1408.451C2646.304,1376.593 2645.481,1346.498 2641.734,1334.005C2636.065,1315.109 2622.586,1308.129 2599.251,1297.413C2582.071,1289.525 2562.598,1280.584 2547.398,1262.852C2527.137,1239.214 2529.715,1203.162 2532.444,1164.993C2534.766,1132.508 2537.166,1098.914 2525.193,1076.961C2511.919,1052.632 2472.586,1041.946 2446.294,1048.66C2421.943,1054.868 2421.943,1071.309 2421.943,1076.712C2421.943,1097.896 2428.117,1122.964 2433.564,1145.084C2442.641,1181.939 2450.481,1213.768 2432.392,1233.539C2422.458,1244.398 2407.455,1248.366 2387.792,1245.346C2312.101,1233.7 2318.126,1169.14 2330.136,1040.517C2331.823,1022.458 2333.661,1002.766 2335.5,981.315C2345.986,858.996 2295.319,821.183 2231.174,773.31C2212.417,759.313 2193.022,744.838 2174.602,727.57C2135.952,691.335 2109.653,697.297 2076.357,704.853C2051.525,710.485 2023.378,716.872 1992.795,701.462C1956.584,683.22 1887.822,674.987 1847.05,692.365C1832.526,698.554 1823.432,707.309 1820.026,718.386C1816.401,730.161 1816.115,739.397 1819.276,742.485C1824.85,747.929 1848.736,750.83 1891.715,736.506C1924.767,725.483 1961.044,732.155 1991.232,754.802C2026.371,781.164 2046.295,824.46 2044.533,870.622C2042.77,916.821 2018.185,941.193 1998.432,960.776C1977.748,981.284 1968.039,992.297 1973.259,1018.388C1991.316,1108.681 1931.714,1135.339 1832.966,1179.506L1832.502,1179.714C1736.919,1222.463 1644.448,1312.881 1612.627,1394.704C1589.146,1455.08 1573.743,1465.9 1538.093,1486.638C1520.085,1497.114 1495.42,1511.462 1458.454,1541.387C1403.112,1586.187 1390.109,1610.645 1375.056,1638.963C1362.751,1662.108 1348.806,1688.34 1312.759,1726.641C1277.923,1763.658 1262.288,1826.248 1249.727,1876.543C1242.369,1906.003 1236.013,1931.445 1226.812,1950.388C1208.748,1987.566 1182.911,1987.331 1169.134,1983.879C1146.695,1978.269 1135.938,1965.175 1130.865,1955.178C1112.933,1919.846 1134.791,1866.157 1160.096,1803.989C1164.822,1792.383 1169.649,1780.527 1174.295,1768.579C1197.481,1708.96 1191.041,1658.433 1177.728,1646.299C1176.785,1645.442 1174.942,1643.76 1171.053,1643.76Z" style="fill:rgb(57,0,117);fill-rule:nonzero;"/>
        </g>
        <g>
            <g>
                <path d="M1451.265,1461.184C1445.708,1461.184 1439.986,1460.493 1434.129,1459.097C1413.018,1454.073 1396.5,1439.522 1387.613,1418.125C1370.994,1378.105 1381.278,1319.619 1414.451,1265.491C1441.404,1221.519 1488.958,1181.482 1530.913,1146.16C1561.767,1120.186 1590.91,1095.652 1598.354,1079.829C1604.785,1066.167 1607.101,1050.784 1609.345,1035.906C1613.439,1008.741 1618.08,977.952 1650.663,963.699C1672.953,953.941 1699.994,958.284 1722.985,975.325C1734.972,984.207 1744.457,995.508 1750.732,1007.771C1757.854,992.971 1763.859,973.091 1761.931,949.946C1760.942,938.088 1757.805,924.143 1754.77,910.657C1747.343,877.637 1740.327,846.448 1760.422,830.369C1775.092,818.641 1792.688,816.27 1809.965,823.706C1842.245,837.598 1870.697,886.487 1874.74,935.005C1880.116,999.549 1824.181,1141.848 1670.509,1178.313C1533.934,1210.718 1520.704,1294.334 1524.974,1341.289C1528.87,1384.15 1516.024,1425.154 1492.245,1445.752C1480.448,1455.974 1466.5,1461.184 1451.265,1461.184ZM1675.633,990.213C1671.287,990.213 1667.137,991.026 1663.345,992.684C1647.503,999.615 1644.661,1013.89 1640.63,1040.623C1638.169,1056.949 1635.381,1075.455 1626.983,1093.301C1616.587,1115.391 1587.774,1139.651 1551.292,1170.364C1511.172,1204.138 1465.701,1242.42 1441.426,1282.024C1414.302,1326.282 1404.419,1376.099 1416.831,1405.991C1421.868,1418.115 1430.151,1425.627 1441.457,1428.32C1453.383,1431.159 1463.22,1429.038 1471.53,1421.838C1487.609,1407.91 1496.425,1376.692 1493.466,1344.155C1489.281,1298.137 1497.445,1186.86 1663.205,1147.527C1798.388,1115.452 1847.824,993.01 1843.212,937.632C1839.892,897.795 1816.432,860.933 1797.458,852.766C1790.908,849.951 1785.754,850.632 1780.219,855.049C1775.866,860.274 1782.221,888.526 1785.636,903.714C1788.907,918.248 1792.289,933.279 1793.458,947.32C1798.932,1012.989 1756.219,1056.522 1754.398,1058.343C1749.63,1063.101 1742.374,1064.329 1736.312,1061.392C1730.25,1058.455 1726.712,1052 1727.501,1045.308C1729.264,1030.31 1719.879,1012.4 1704.149,1000.745C1694.813,993.826 1684.791,990.213 1675.633,990.213ZM1770.306,842.722L1780.189,855.076L1770.306,842.722Z" style="fill:rgb(57,0,117);fill-rule:nonzero;"/>
            </g>
            <g>
                <path d="M2818.956,1479.866C2815.433,1479.866 2811.917,1479.595 2808.419,1479.029C2757.42,1470.758 2762.272,1404.205 2765.48,1360.164C2766.161,1350.796 2766.806,1341.949 2766.806,1335.335C2766.806,1326.844 2755.871,1314.437 2745.297,1302.439C2723.869,1278.127 2694.523,1244.832 2711.027,1197.153C2717.528,1178.369 2735.922,1167.192 2761.493,1166.486C2801.867,1165.453 2856.159,1190.597 2873.622,1233.285C2884.818,1260.651 2888.898,1284.911 2892.499,1306.317C2896.198,1328.312 2899.391,1347.306 2909.491,1364.139C2920.787,1382.967 2918.175,1407.181 2902.321,1430.577C2884.871,1456.328 2851.807,1479.863 2818.956,1479.866ZM2764.166,1198.091C2763.558,1198.091 2762.96,1198.098 2762.364,1198.115C2756.842,1198.266 2743.699,1199.487 2740.924,1207.502L2740.924,1207.504C2731.183,1235.644 2745.729,1255.08 2769.032,1281.518C2784.159,1298.681 2798.446,1314.89 2798.446,1335.334C2798.446,1343.1 2797.76,1352.504 2797.035,1362.463C2794.664,1394.997 2791.083,1444.165 2813.483,1447.797C2832.816,1450.902 2860.934,1435.251 2876.129,1412.829C2880.223,1406.787 2889.029,1391.53 2882.362,1380.419C2869.183,1358.454 2865.353,1335.678 2861.298,1311.564C2857.809,1290.819 2854.201,1269.369 2844.34,1245.263C2832.799,1217.058 2793.333,1198.091 2764.166,1198.091ZM2725.975,1202.329L2726.024,1202.329L2725.975,1202.329Z" style="fill:rgb(57,0,117);fill-rule:nonzero;"/>
            </g>
            <g>
                <path d="M2487.86,966.958C2486.971,966.958 2486.078,966.938 2485.182,966.902C2433.217,964.78 2427.379,914.944 2423.89,885.169C2422.75,875.442 2420.843,859.163 2417.733,856.009C2395.865,837.686 2383.05,811.834 2382.626,785.133C2382.255,761.681 2391.339,739.923 2407.553,725.436C2420.527,713.844 2438.08,709.901 2458.285,714.008C2499.33,722.365 2542.992,762.177 2558.021,794.115C2573.355,826.703 2570.377,893.48 2543.438,934.076C2529.132,955.632 2509.959,966.958 2487.86,966.958ZM2443.36,744.068C2437.261,744.068 2432.327,745.726 2428.633,749.029L2428.631,749.029C2419.273,757.391 2414.034,770.369 2414.261,784.632C2414.542,802.401 2423.011,819.156 2438.106,831.807C2450.733,842.388 2452.957,861.38 2455.313,881.487C2459.517,917.366 2463.96,934.37 2486.47,935.291C2498.426,935.794 2508.399,929.656 2517.075,916.58C2537.119,886.377 2540.6,831.404 2529.392,807.586C2517.893,783.148 2482.341,751.192 2451.973,745.01C2448.885,744.38 2446.011,744.068 2443.36,744.068ZM2418.092,737.232L2418.141,737.232L2418.092,737.232Z" style="fill:rgb(57,0,117);fill-rule:nonzero;"/>
            </g>
            <g>
                <path d="M1930.262,598.357C1902.203,598.357 1884.471,586.035 1870.851,576.575C1857.987,567.639 1853.925,565.674 1847.785,567.832C1824.023,576.145 1768.383,595.618 1745.026,554.089C1735.492,537.143 1735.6,517.114 1745.312,500.51C1753.105,487.185 1773.967,464.831 1826.137,464.831C1846.093,464.831 1867.543,457.075 1888.285,449.575C1929.203,434.773 1980.126,416.367 2015.631,472.158C2029.989,494.722 2032.374,521.169 2022.179,544.724C2010.763,571.091 1984.672,589.912 1950.59,596.36C1943.257,597.747 1936.502,598.357 1930.262,598.357ZM1852.003,535.374C1866.993,535.374 1878.883,543.633 1888.9,550.591C1903.582,560.791 1917.438,570.428 1944.708,565.271C1968.658,560.74 1985.86,548.979 1993.143,532.153C1999.102,518.386 1997.569,502.71 1988.936,489.145C1968.018,456.264 1943.724,463.168 1899.044,479.326C1875.738,487.756 1851.637,496.472 1826.136,496.472C1799.564,496.472 1780.059,503.765 1772.62,516.484C1768.587,523.379 1768.58,531.433 1772.598,538.576C1779.764,551.31 1799.722,551.13 1837.332,537.968C1842.535,536.148 1847.415,535.374 1852.003,535.374Z" style="fill:rgb(57,0,117);fill-rule:nonzero;"/>
            </g>
            <g>
                <path d="M1620.059,855.513C1582.815,855.513 1552.515,823.418 1552.515,783.97C1552.515,744.522 1582.815,712.427 1620.059,712.427C1657.303,712.427 1687.603,744.522 1687.603,783.97C1687.603,823.418 1657.303,855.513 1620.059,855.513ZM1620.059,744.068C1600.262,744.068 1584.156,761.968 1584.156,783.97C1584.156,805.972 1600.262,823.872 1620.059,823.872C1639.856,823.872 1655.962,805.972 1655.962,783.97C1655.963,761.968 1639.857,744.068 1620.059,744.068Z" style="fill:rgb(57,0,117);fill-rule:nonzero;"/>
            </g>
            <g>
                <path d="M1365.235,1139.519C1361.505,1139.519 1357.713,1138.994 1353.89,1137.925C1340.697,1134.231 1331.659,1124.292 1329.09,1110.657C1323.265,1079.719 1352.13,1031.411 1373.687,1015.186C1386.724,1005.371 1396.729,1006.966 1402.828,1010.039C1428.104,1022.766 1428.714,1061.975 1416.251,1094.131C1405.042,1123.054 1386.136,1139.519 1365.235,1139.519ZM1390.853,1041.746C1379.239,1051.685 1358.995,1084.073 1359.962,1102.847C1360.167,1106.826 1360.968,1107.051 1362.42,1107.456C1371.563,1110.041 1381.436,1096.411 1386.751,1082.698C1393.834,1064.424 1393.275,1048.591 1390.853,1041.746Z" style="fill:rgb(57,0,117);fill-rule:nonzero;"/>
            </g>
            <g>
                <path d="M1213.912,1532.988C1192.398,1532.988 1171.476,1522.907 1159.679,1506.198C1132.99,1468.385 1139.643,1421.74 1175.858,1392.765C1199.227,1374.069 1215.367,1323.944 1219.615,1306.207C1220.762,1301.405 1224.09,1297.411 1228.607,1295.416C1233.121,1293.421 1238.314,1293.646 1242.635,1296.026C1274.422,1313.543 1327.518,1368.318 1300.953,1450.233C1280.079,1514.593 1243.832,1529.23 1224.083,1532.223C1220.699,1532.739 1217.298,1532.988 1213.912,1532.988ZM1243.785,1336.016C1235.636,1360.323 1219.835,1398.103 1195.623,1417.474C1167.393,1440.059 1172.54,1469.557 1185.528,1487.953C1191.092,1495.836 1204.058,1503.258 1219.337,1500.946C1240.978,1497.662 1259.274,1476.188 1270.856,1440.475C1288.045,1387.476 1262.44,1352.962 1243.785,1336.016Z" style="fill:rgb(57,0,117);fill-rule:nonzero;"/>
            </g>
            <g>
                <path d="M3015.325,2160.586C3005.349,2160.586 2994.949,2157.827 2984.514,2152.236C2909.914,2112.275 2923.086,1989.953 2939.485,1901.421C2950.327,1842.869 2929.771,1809.944 2929.561,1809.627C2925.977,1804.253 2926.021,1797.239 2929.673,1791.91C2933.323,1786.583 2939.851,1784.012 2946.155,1785.411C3050.838,1808.675 3059.007,1892.806 3064.414,1948.477C3066.387,1968.792 3068.249,1987.981 3073.987,1996.326C3097.29,2030.225 3088.706,2105.616 3057.583,2140.381C3045.601,2153.765 3030.992,2160.586 3015.325,2160.586ZM2969.454,1826.358C2974.19,1845.767 2976.917,1873.033 2970.594,1907.183C2948.043,2028.941 2957.752,2102.007 2999.456,2124.346C3013.489,2131.87 3024.146,2130.303 3034.009,2119.278C3056.592,2094.053 3061.655,2034.239 3047.915,2014.249C3037.549,1999.173 3035.405,1977.096 3032.922,1951.534C3028.343,1904.356 3023.231,1851.758 2969.454,1826.358Z" style="fill:rgb(57,0,117);fill-rule:nonzero;"/>
            </g>
            <g>
                <path d="M3030.162,2410.274C2992.24,2410.274 2961.388,2374.449 2961.388,2330.411C2961.388,2286.378 2992.24,2250.553 3030.162,2250.553C3068.084,2250.553 3098.939,2286.378 3098.939,2330.411C3098.939,2374.448 3068.084,2410.274 3030.162,2410.274ZM3030.162,2282.192C3009.686,2282.192 2993.028,2303.823 2993.028,2330.41C2993.028,2357.002 3009.686,2378.632 3030.162,2378.632C3050.641,2378.632 3067.298,2357.001 3067.298,2330.41C3067.298,2303.823 3050.64,2282.192 3030.162,2282.192Z" style="fill:rgb(57,0,117);fill-rule:nonzero;"/>
            </g>
            <g>
                <path d="M1066.969,2696.812C1065.475,2696.812 1064.073,2696.695 1062.789,2696.509C1037.782,2692.862 1020.011,2657.115 999.432,2615.728C989.752,2596.255 973.551,2563.672 965.728,2559.707C929.21,2543.198 902.012,2506.211 901.087,2471.777C900.337,2443.911 916.038,2420.204 945.286,2405.039C967.066,2393.74 989.549,2393.413 1008.579,2404.101C1036.042,2419.531 1053.699,2456.01 1057.021,2504.198C1058.913,2531.625 1071.025,2557.841 1082.739,2583.188C1099.506,2619.477 1116.848,2657.001 1089.751,2686.035C1081.793,2694.561 1073.502,2696.812 1066.969,2696.812ZM1067.581,2665.244L1067.63,2665.244L1067.581,2665.244ZM978.802,2427.935C972.86,2427.935 966.527,2429.663 959.852,2433.125C941.427,2442.681 932.298,2455.396 932.716,2470.923C933.312,2493.14 953.551,2519.482 978.79,2530.894C995.731,2538.555 1008.436,2562.769 1027.762,2601.641C1037.857,2621.944 1056.297,2659.038 1066.37,2664.708C1066.451,2664.63 1066.534,2664.542 1066.622,2664.444C1078.597,2651.617 1069.635,2630.254 1054.019,2596.461C1041.705,2569.815 1027.749,2539.615 1025.459,2506.378C1022.92,2469.571 1010.818,2441.651 993.086,2431.69C988.626,2429.185 983.856,2427.935 978.802,2427.935ZM952.569,2419.082L952.618,2419.082L952.569,2419.082Z" style="fill:rgb(57,0,117);fill-rule:nonzero;"/>
            </g>
        </g>
        <g>
            <path d="M2152.247,2247.899C2164.888,2310.804 2124.521,2377 2066.091,2401.919C1984.298,2439.149 1881.701,2395.332 1856.988,2308.089C1851.297,2288.17 1850.103,2267.297 1854.027,2247.899C1855.043,2242.879 1859.936,2239.632 1864.957,2240.648C1868.653,2241.396 1871.386,2244.244 1872.167,2247.698C1885.571,2311.69 1938.766,2359.566 2002.282,2358.91C2065.347,2358.42 2117.053,2311.188 2130.642,2247.899C2132.904,2236.218 2150.043,2236.311 2152.247,2247.899Z" style="fill:rgb(57,0,117);fill-rule:nonzero;"/>
        </g>
        <g opacity="0.5">
            <g transform="matrix(0.9822,-0.1879,0.1879,0.9822,-390.3157,305.9835)">
                <ellipse cx="1419.09" cy="2212.143" rx="105.1" ry="134.447" style="fill:white;"/>
            </g>
        </g>
        <g opacity="0.5">
            <path d="M1447.515,2007.852C1506.437,2026.191 1565.648,1833.206 1670.085,1789.545C1774.522,1745.884 1843.355,1608.494 1875.38,1519.628C1907.405,1430.762 2038.87,1372.755 2011.104,1310.639C1983.338,1248.523 1863.032,1298.488 1792.201,1393.1C1721.369,1487.712 1752.95,1586.425 1646.04,1628.188C1539.129,1669.95 1325.527,1969.886 1447.515,2007.852Z" style="fill:white;fill-rule:nonzero;"/>
        </g>
        <g opacity="0.2">
            <path d="M2838.314,2483.784C2797.914,2523.83 2851.688,2565.273 2756.283,2670.573C2716.554,2714.382 2785.604,2845.537 2594.235,2844.032C2594.235,2844.032 2483.106,2941.862 2371.978,2955.245C2260.85,2968.577 2214.575,2950.785 2108.091,3008.622C2001.607,3066.406 1765.474,2968.577 1668.223,2926.327C1571.028,2884.078 1533.985,2879.617 1450.667,2879.617C1367.293,2879.617 1399.747,2755.073 1339.539,2701.696C1279.331,2648.374 1209.889,2626.12 1205.245,2577.206C1200.657,2528.291 1154.326,2506.038 1158.97,2430.408C1163.613,2354.833 1084.884,2332.579 1075.651,2239.158C1066.363,2145.79 1117.282,2127.997 1098.762,2074.622C1080.24,2021.246 1075.651,1976.793 1103.405,1923.416C1107.211,1916.106 1111.016,1910.033 1114.876,1904.872C1116.051,1935.135 1117.73,1965.397 1128.082,1984.157C1138.769,2003.562 1152.926,2021.462 1159.472,2042.479C1176.259,2096.447 1138.713,2151.381 1133.229,2207.498C1123.045,2311.294 1218.953,2391.6 1284.533,2474.647C1342.894,2548.556 1384.749,2639.451 1467.172,2687.828C1558.884,2741.688 1677.846,2727.874 1778.286,2691.161C1878.726,2654.448 1970.438,2597.202 2072.781,2565.596C2191.183,2528.937 2318.203,2528.345 2442.424,2534.581C2531.897,2539.095 2634.072,2542.59 2696.296,2480.721C2732.107,2445.137 2746.432,2394.771 2756.224,2346.179C2775.025,2252.918 2782.131,2157.508 2777.264,2062.636C2788.119,2083.17 2798.974,2103.702 2809.774,2124.29C2815.873,2178.042 2825.609,2227.548 2838.311,2261.412C2876.644,2363.702 2878.658,2443.739 2838.314,2483.784Z" style="fill:rgb(40,0,99);fill-rule:nonzero;"/>
        </g>
        <g>
            <g>
                <g>
                    <g>
                        <path d="M2297.403,1825.465C2365.034,1818.57 2427.48,1892.608 2436.88,1990.831C2446.281,2089.055 2399.074,2174.271 2331.442,2181.166C2263.812,2188.061 2201.364,2114.025 2191.964,2015.8C2182.565,1917.577 2229.772,1832.36 2297.403,1825.465Z" style="fill:rgb(57,0,117);fill-rule:nonzero;"/>
                    </g>
                </g>
            </g>
            <g>
                <g>
                    <g>
                        <path d="M2302.154,1866.61C2323.705,1875.607 2332.984,1909.039 2322.878,1941.283C2312.773,1973.528 2287.111,1992.372 2265.559,1983.374C2244.009,1974.378 2234.729,1940.945 2244.835,1908.702C2254.942,1876.458 2280.603,1857.613 2302.154,1866.61Z" style="fill:white;fill-rule:nonzero;"/>
                    </g>
                </g>
            </g>
            <g>
                <g>
                    <g>
                        <path d="M2374.682,2077.776C2384.886,2085.328 2386.126,2103.76 2377.456,2118.945C2368.786,2134.132 2353.485,2140.32 2343.284,2132.768C2333.081,2125.218 2331.84,2106.785 2340.511,2091.601C2349.179,2076.415 2364.481,2070.226 2374.682,2077.776Z" style="fill:white;fill-opacity:0.5;fill-rule:nonzero;"/>
                    </g>
                </g>
            </g>
        </g>
        <g>
            <g>
                <g>
                    <g>
                        <path d="M1717.421,1825.465C1649.79,1818.57 1587.344,1892.608 1577.944,1990.831C1568.544,2089.055 1615.75,2174.271 1683.382,2181.166C1751.012,2188.061 1813.46,2114.025 1822.86,2015.8C1832.26,1917.577 1785.052,1832.36 1717.421,1825.465Z" style="fill:rgb(57,0,117);fill-rule:nonzero;"/>
                    </g>
                </g>
            </g>
            <g>
                <g>
                    <g>
                        <path d="M1712.67,1866.61C1691.119,1875.607 1681.84,1909.039 1691.946,1941.283C1702.051,1973.528 1727.713,1992.372 1749.265,1983.374C1770.815,1974.378 1780.094,1940.945 1769.989,1908.702C1759.882,1876.458 1734.221,1857.613 1712.67,1866.61Z" style="fill:white;fill-rule:nonzero;"/>
                    </g>
                </g>
            </g>
            <g>
                <g>
                    <g>
                        <path d="M1640.142,2077.776C1629.939,2085.328 1628.698,2103.76 1637.369,2118.945C1646.039,2134.132 1661.34,2140.32 1671.541,2132.768C1681.744,2125.218 1682.985,2106.785 1674.314,2091.601C1665.645,2076.415 1650.343,2070.226 1640.142,2077.776Z" style="fill:white;fill-opacity:0.5;fill-rule:nonzero;"/>
                    </g>
                </g>
            </g>
        </g>
    </g>
</svg>
