<?xml version="1.0" encoding="UTF-8" standalone="no"?>
<!DOCTYPE svg PUBLIC "-//W3C//DTD SVG 1.1//EN" "http://www.w3.org/Graphics/SVG/1.1/DTD/svg11.dtd">
<svg width="100%" height="100%" viewBox="0 0 257 205" version="1.1" xmlns="http://www.w3.org/2000/svg" xmlns:xlink="http://www.w3.org/1999/xlink" xml:space="preserve" xmlns:serif="http://www.serif.com/" style="fill-rule:evenodd;clip-rule:evenodd;stroke-linejoin:round;stroke-miterlimit:2;">
    <g transform="matrix(1,0,0,1,-732.964533,-94.843227)">
        <g>
            <path d="M910.626,218.738C888.087,211.047 877.527,190.344 874.559,183.457C873.805,183.646 872.925,183.48 872.224,183.214C870.222,182.467 868.153,181.937 866.057,181.604C868.044,198.322 873.901,214.576 883.092,228.684C893.326,244.393 906.898,256.739 919.156,272.916C924.789,280.352 930.546,287.022 929.1,298.33C928.948,299.52 930.396,300.224 931.223,299.356C940.254,289.886 947.017,278.734 949.442,265.805C951.714,253.688 950.686,240.984 946.591,229.36C944.414,228.792 942.133,228.187 939.761,227.543C930.808,225.119 920.643,222.16 910.626,218.738Z" style="fill:rgb(163,47,81);fill-rule:nonzero;"/>
            <path d="M849.806,183.214C849.001,183.516 847.965,183.69 847.146,183.348C847.252,183.392 847.363,183.429 847.476,183.457C844.508,190.344 833.948,211.047 811.409,218.738C801.392,222.16 791.227,225.119 782.275,227.543C779.902,228.187 777.621,228.792 775.444,229.36C771.349,240.984 770.321,253.688 772.594,265.805C775.019,278.734 781.781,289.886 790.812,299.356C791.64,300.224 793.087,299.52 792.935,298.33C791.489,287.022 797.245,280.352 802.88,272.916C815.137,256.739 828.708,244.393 838.943,228.684C848.134,214.577 853.99,198.324 855.978,181.607C855.687,181.654 855.395,181.696 855.105,181.751C853.304,182.079 851.535,182.568 849.806,183.214Z" style="fill:rgb(163,47,81);fill-rule:nonzero;"/>
            <path d="M846.67,183.062L846.541,182.936L846.537,182.94L846.67,183.062Z" style="fill:rgb(163,47,81);fill-rule:nonzero;"/>
            <path d="M846.789,183.149L847.026,183.288L846.789,183.149Z" style="fill:rgb(163,47,81);fill-rule:nonzero;"/>
            <path d="M876.4,145.643C876.4,145.643 882.313,144.202 896.681,135.371C911.048,126.544 915.241,125.345 940.233,118.309C943.035,117.521 945.57,116.8 947.886,116.14C945.776,111.611 943.169,107.315 940.123,103.355C937.497,99.942 934.507,97.603 930.754,95.492C928.132,94.018 926.713,95.063 923.956,98.554C910.702,115.342 893.6,133.047 875.14,144.496C875.278,144.542 875.414,144.587 875.542,144.66C875.983,144.912 876.211,145.19 876.4,145.643Z" style="fill:rgb(236,145,177);fill-rule:nonzero;"/>
            <path d="M988.17,165.026C989.945,159.095 988.714,153.999 987.744,148.099C986.707,141.751 984.651,135.429 982.383,129.426C980.138,123.495 979.213,114.223 973.457,111.278C970.225,109.62 966.232,110.91 947.886,116.14C945.57,116.8 943.035,117.521 940.233,118.309C915.241,125.345 911.048,126.544 896.681,135.371C882.313,144.202 876.4,145.643 876.4,145.643C876.508,145.908 876.615,146.173 876.714,146.438C876.876,146.851 877.024,147.269 877.167,147.686C877.459,148.539 877.715,149.397 877.94,150.268C878.115,150.944 878.266,151.625 878.401,152.308C893.844,145.217 911.594,143.23 928.21,146.806C910.959,146.369 893.5,151.711 879.181,161.394C879.155,163.498 879.008,165.604 878.766,167.693C878.664,168.56 878.544,169.425 878.416,170.289C892.875,180.299 910.655,185.829 928.21,185.383C914.777,188.274 900.6,187.533 887.501,183.398C898.475,194.035 911.569,202.491 925.828,207.999C906.891,206.861 888.049,197.302 875.497,182.94C875.231,183.204 874.91,183.371 874.559,183.457C877.527,190.344 888.087,211.047 910.626,218.738C920.643,222.16 930.808,225.119 939.761,227.543C942.133,228.187 944.414,228.792 946.591,229.36C954.763,231.493 961.386,233.086 965.119,234.076C969.407,235.211 973.049,237.138 976.133,232.886C978.697,229.353 979.5,224.822 980.857,220.763C983.048,214.204 984.709,207.446 985.288,200.537C985.697,195.669 985.688,190.398 984.421,185.648C983.662,182.806 982.621,178.958 983.362,176.013C984.3,172.259 987.034,168.815 988.17,165.026Z" style="fill:rgb(221,105,139);fill-rule:nonzero;"/>
            <path d="M879.181,161.394C893.5,151.711 910.959,146.369 928.21,146.806C911.594,143.23 893.844,145.217 878.401,152.308C878.993,155.3 879.218,158.345 879.181,161.394Z" style="fill:rgb(236,145,177);fill-rule:nonzero;"/>
            <path d="M825.355,135.371C839.671,144.17 845.589,145.632 845.631,145.642C845.82,145.19 846.049,144.911 846.489,144.66C846.617,144.587 846.755,144.541 846.894,144.495C828.435,133.046 811.332,115.342 798.078,98.554C795.322,95.063 793.903,94.018 791.281,95.492C787.528,97.603 784.537,99.942 781.912,103.355C778.865,107.315 776.259,111.611 774.149,116.14C776.466,116.8 778.999,117.521 781.803,118.309C806.793,125.345 810.987,126.544 825.355,135.371Z" style="fill:rgb(236,145,177);fill-rule:nonzero;"/>
            <path d="M811.409,218.738C833.948,211.047 844.508,190.344 847.476,183.457C847.363,183.429 847.252,183.392 847.146,183.348L847.026,183.288L846.789,183.149L846.67,183.062L846.537,182.94C833.986,197.302 815.144,206.861 796.207,207.999C810.466,202.491 823.561,194.035 834.534,183.398C821.436,187.533 807.259,188.274 793.824,185.383C811.379,185.829 829.156,180.3 843.615,170.292C843.487,169.427 843.366,168.561 843.265,167.693C843.022,165.603 842.876,163.496 842.85,161.391C828.531,151.71 811.073,146.369 793.824,146.806C810.44,143.23 828.189,145.217 843.63,152.306C843.765,151.624 843.916,150.944 844.091,150.268C844.316,149.397 844.572,148.539 844.863,147.686C845.007,147.269 845.155,146.851 845.317,146.438C845.415,146.173 845.523,145.908 845.631,145.643C845.589,145.632 839.671,144.17 825.355,135.371C810.987,126.544 806.793,125.345 781.803,118.309C778.999,117.521 776.466,116.8 774.149,116.14C755.803,110.91 751.811,109.62 748.577,111.278C742.822,114.223 741.897,123.495 739.652,129.426C737.385,135.429 735.328,141.751 734.291,148.099C733.322,153.999 732.091,159.095 733.865,165.026C735,168.815 737.735,172.259 738.673,176.013C739.414,178.958 738.372,182.806 737.614,185.648C736.347,190.398 736.338,195.669 736.747,200.537C737.326,207.446 738.988,214.204 741.179,220.763C742.534,224.822 743.338,229.353 745.902,232.886C748.987,237.138 752.627,235.211 756.915,234.076C760.649,233.086 767.273,231.493 775.444,229.36C777.621,228.792 779.902,228.187 782.275,227.543C791.227,225.119 801.392,222.16 811.409,218.738Z" style="fill:rgb(221,105,139);fill-rule:nonzero;"/>
            <path d="M793.824,146.806C811.073,146.369 828.531,151.71 842.85,161.391C842.813,158.343 843.037,155.298 843.63,152.306C828.189,145.217 810.44,143.23 793.824,146.806Z" style="fill:rgb(236,145,177);fill-rule:nonzero;"/>
            <path d="M876.948,178.927C876.741,180.345 876.441,181.787 875.655,182.774L875.497,182.94C888.049,197.302 906.891,206.861 925.828,207.999C911.569,202.491 898.475,194.035 887.501,183.398C900.6,187.533 914.777,188.274 928.21,185.383C910.655,185.829 892.875,180.299 878.416,170.289C878.111,172.335 877.74,174.372 877.329,176.399C877.172,177.153 877.077,178.038 876.948,178.927Z" style="fill:rgb(236,145,177);fill-rule:nonzero;"/>
            <path d="M793.824,185.383C807.259,188.274 821.436,187.533 834.534,183.398C823.561,194.035 810.466,202.491 796.207,207.999C815.144,206.861 833.986,197.302 846.537,182.94L846.541,182.936L846.376,182.774C845.097,181.163 845.101,178.352 844.701,176.399C844.291,174.373 843.92,172.337 843.615,170.292C829.156,180.3 811.379,185.829 793.824,185.383Z" style="fill:rgb(236,145,177);fill-rule:nonzero;"/>
            <path d="M874.559,183.457C874.91,183.371 875.231,183.204 875.497,182.94L875.655,182.774C876.441,181.787 876.741,180.345 876.948,178.927C877.077,178.038 877.172,177.153 877.329,176.399C877.74,174.372 878.111,172.335 878.416,170.289C878.544,169.425 878.664,168.56 878.766,167.693C879.008,165.604 879.155,163.498 879.181,161.394C879.218,158.345 878.993,155.3 878.401,152.308C878.266,151.625 878.115,150.944 877.94,150.268C877.715,149.397 877.459,148.539 877.167,147.686C877.024,147.269 876.876,146.851 876.714,146.438C876.615,146.173 876.508,145.908 876.4,145.643C876.211,145.19 875.983,144.912 875.542,144.66C875.414,144.587 875.278,144.542 875.14,144.496C874.559,144.305 873.908,144.324 873.283,144.364C869.171,144.62 864.803,145.626 861.018,145.473C857.228,145.626 852.86,144.62 848.746,144.364C848.123,144.324 847.474,144.305 846.894,144.495C846.755,144.541 846.617,144.587 846.489,144.66C846.049,144.911 845.82,145.19 845.631,145.642L845.631,145.643C845.523,145.908 845.415,146.173 845.317,146.438C845.155,146.851 845.007,147.269 844.863,147.686C844.572,148.539 844.316,149.397 844.091,150.268C843.916,150.944 843.765,151.624 843.63,152.306C843.037,155.298 842.813,158.343 842.85,161.391C842.876,163.496 843.022,165.603 843.265,167.693C843.366,168.561 843.487,169.427 843.615,170.292C843.92,172.337 844.291,174.373 844.701,176.399C845.101,178.352 845.097,181.163 846.376,182.774L846.541,182.936L846.67,183.062L846.789,183.149L847.026,183.288L847.146,183.348C847.965,183.69 849.001,183.516 849.806,183.214C851.535,182.568 853.304,182.079 855.105,181.751C855.395,181.696 855.687,181.654 855.978,181.607C857.647,181.34 859.332,181.198 861.018,181.194C862.701,181.198 864.387,181.339 866.057,181.604C868.153,181.937 870.222,182.467 872.224,183.214C872.925,183.48 873.805,183.646 874.559,183.457Z" style="fill:rgb(230,79,124);fill-rule:nonzero;"/>
        </g>
    </g>
</svg>
