<?xml version="1.0" encoding="UTF-8" standalone="no"?>
<!DOCTYPE svg PUBLIC "-//W3C//DTD SVG 1.1//EN" "http://www.w3.org/Graphics/SVG/1.1/DTD/svg11.dtd">
<svg width="100%" height="100%" viewBox="0 0 1989 698" version="1.1" xmlns="http://www.w3.org/2000/svg" xmlns:xlink="http://www.w3.org/1999/xlink" xml:space="preserve" xmlns:serif="http://www.serif.com/" style="fill-rule:evenodd;clip-rule:evenodd;stroke-linejoin:round;stroke-miterlimit:2;">
    <g transform="matrix(1,0,0,1,-105.919998,-311.406982)">
        <path d="M1250.37,414.897C1237.29,432.317 1227.64,451.557 1221.63,471.947C1221.55,472.377 1221.44,472.787 1221.27,473.167C1221.28,473.107 1221.3,473.037 1221.32,472.977L1221.71,471.617L1221.71,462.827C1221.71,421.237 1187.88,387.407 1146.29,387.407L1053.71,387.407C1012.12,387.407 978.29,421.237 978.29,462.827L978.29,471.617L978.68,472.977C978.7,473.037 978.72,473.107 978.73,473.167C978.56,472.787 978.45,472.377 978.37,471.947C972.36,451.557 962.71,432.317 949.63,414.897C936.03,396.807 919.49,381.717 900.7,370.087L1299.3,370.087C1280.51,381.717 1263.97,396.807 1250.37,414.897ZM2089.29,569.017L2031.14,569.017C2028.38,569.017 2026.15,566.787 2026.14,564.027L2026.13,553.767C2026.05,496.827 2005.26,441.957 1967.59,399.257C1929.92,356.567 1878.06,329.087 1821.57,321.897C1766.95,314.937 1706.27,311.407 1641.21,311.407C1558.61,311.407 1480.94,318.987 1409.42,333.967C1409.28,333.997 1409.14,334.027 1409,334.047C1408.86,334.077 1408.72,334.107 1408.58,334.137L791.42,334.137C791.28,334.107 791.14,334.077 791,334.047C790.86,334.027 790.72,333.997 790.59,333.967C719.06,318.987 641.39,311.407 558.79,311.407C493.73,311.407 433.05,314.937 378.43,321.897C321.94,329.087 270.08,356.567 232.41,399.257C194.74,441.957 173.95,496.827 173.87,553.767L173.86,564.027C173.85,566.787 171.62,569.017 168.86,569.017L110.71,569.017C108.07,569.017 105.92,571.167 105.92,573.807L105.92,609.887C105.92,612.227 107.6,614.207 109.9,614.607L169.6,624.817C172.01,625.227 173.76,627.307 173.76,629.747L173.69,680.247C173.09,724.507 181.23,767.467 197.89,807.997C213.97,847.117 237.25,882.297 267.09,912.557C296.94,942.847 331.81,966.637 370.73,983.287C411.04,1000.53 453.91,1009.28 498.14,1009.31L504.67,1009.31C563.01,1009.31 623.23,992.087 683.64,958.127C737.51,927.847 790.79,884.167 837.71,831.827C927.6,731.567 985.68,610.297 985.68,522.887L985.7,521.667L995.02,521.987C995.25,521.997 995.49,522.007 995.73,522.007C996.12,522.007 996.52,521.987 996.89,521.967C1006.03,521.377 1013.19,513.567 1013.19,504.187L1013.19,460.227C1013.19,436.667 1032.35,417.497 1055.91,417.497L1144.09,417.497C1167.65,417.497 1186.81,436.667 1186.81,460.227L1186.81,504.187C1186.81,513.567 1193.96,521.377 1203.08,521.967C1203.48,521.997 1203.88,522.007 1204.26,522.007C1204.51,522.007 1204.75,521.997 1204.98,521.987L1214.1,521.667C1214.1,521.667 1214.32,522.377 1214.32,522.887C1214.32,610.297 1272.4,731.567 1362.29,831.827C1409.21,884.167 1462.49,927.847 1516.36,958.127C1576.77,992.087 1636.99,1009.31 1695.33,1009.31L1701.86,1009.31C1746.09,1009.28 1788.96,1000.53 1829.27,983.287C1868.19,966.637 1903.06,942.847 1932.91,912.557C1962.75,882.297 1986.03,847.117 2002.11,807.987C2018.77,767.467 2026.91,724.507 2026.31,680.307L2026.24,629.747C2026.24,627.307 2028,625.227 2030.4,624.817L2090.1,614.607C2092.399,614.207 2094.08,612.227 2094.08,609.887L2094.08,573.807C2094.08,571.167 2091.929,569.017 2089.29,569.017Z" style="fill-rule:nonzero;"/>
    </g>
</svg>
